<svg xmlns="http://www.w3.org/2000/svg" viewBox="0 0 1280 800" width="1280" height="800">
<style>* { font-family: 'Courier New', monospace; }</style>
<!-- Background -->
<rect width="1280" height="800" fill="#060d18"/>
<!-- Grid lines -->
<line x1="200" y1="150" x2="1280" y2="150" stroke="#0e1e30" stroke-width="1"/>
<line x1="200" y1="250" x2="1280" y2="250" stroke="#0e1e30" stroke-width="1"/>
<line x1="200" y1="350" x2="1280" y2="350" stroke="#0e1e30" stroke-width="1"/>
<line x1="200" y1="450" x2="1280" y2="450" stroke="#0e1e30" stroke-width="1"/>
<line x1="200" y1="550" x2="1280" y2="550" stroke="#0e1e30" stroke-width="1"/>
<line x1="200" y1="650" x2="1280" y2="650" stroke="#0e1e30" stroke-width="1"/>
<line x1="200" y1="750" x2="1280" y2="750" stroke="#0e1e30" stroke-width="1"/>
<!-- TOPBAR -->
<rect x="0" y="0" width="1280" height="48" fill="#080f1e"/>
<line x1="0" y1="48" x2="1280" y2="48" stroke="#1a2e4a" stroke-width="1"/>
<text x="220" y="30" fill="#38bdf8" font-size="16" font-weight="bold">VulnForge</text>
<rect x="555" y="13" width="170" height="22" rx="11" fill="#0d2137" stroke="#38bdf8" stroke-width="1"/>
<circle cx="573" cy="24" r="4" fill="#4ade80"/>
<text x="583" y="28" fill="#4ade80" font-size="11">SCAN ACTIVE</text>
<circle cx="1248" cy="24" r="16" fill="#0d2137" stroke="#1a2e4a" stroke-width="1"/>
<text x="1241" y="29" fill="#38bdf8" font-size="12">MK</text>
<!-- SIDEBAR -->
<rect x="0" y="48" width="200" height="752" fill="#080f1e"/>
<line x1="200" y1="48" x2="200" y2="800" stroke="#1a2e4a" stroke-width="1"/>
<text x="20" y="85" fill="#38bdf8" font-size="22" font-weight="bold">VF</text>
<text x="50" y="85" fill="#e2e8f0" font-size="13" font-weight="bold">VULNFORGE</text>
<!-- Nav items -->
<rect x="0" y="110" width="200" height="32" fill="transparent"/>
<text x="24" y="131" fill="#4a6080" font-size="13">⬡ Dashboard</text>
<rect x="0" y="142" width="200" height="32" fill="transparent"/>
<text x="24" y="163" fill="#4a6080" font-size="13">◈ Findings</text>
<!-- Replay ACTIVE -->
<rect x="0" y="174" width="200" height="32" fill="#0d2137"/>
<rect x="0" y="174" width="3" height="32" fill="#38bdf8"/>
<text x="24" y="195" fill="#38bdf8" font-size="13">▶ Replay</text>
<rect x="0" y="206" width="200" height="32" fill="transparent"/>
<text x="24" y="227" fill="#4a6080" font-size="13">⬡ Attack Graph</text>
<rect x="0" y="238" width="200" height="32" fill="transparent"/>
<text x="24" y="259" fill="#4a6080" font-size="13">◎ Benchmarks</text>
<rect x="0" y="270" width="200" height="32" fill="transparent"/>
<text x="24" y="291" fill="#4a6080" font-size="13">◉ Runtime</text>
<!-- TOP BAR -->
<rect x="216" y="64" width="1048" height="44" rx="6" fill="#0a1628" stroke="#1a2e4a" stroke-width="1"/>
<text x="232" y="91" fill="#e2e8f0" font-size="15" font-weight="bold">Replay Viewer</text>
<rect x="390" y="74" width="220" height="24" rx="4" fill="#060d18" stroke="#1a2e4a" stroke-width="1"/>
<text x="400" y="91" fill="#4a6080" font-size="12">VF-2024-0847: Reflected XSS ▾</text>
<rect x="1160" y="72" width="92" height="28" rx="4" fill="#38bdf8"/>
<text x="1172" y="91" fill="#060d18" font-size="13" font-weight="bold">▶ Run Replay</text>
<!-- ===================== LEFT PANEL: EXPLOIT DETAILS ===================== -->
<rect x="216" y="124" width="340" height="620" rx="6" fill="#0a1628" stroke="#1a2e4a" stroke-width="1"/>
<rect x="216" y="124" width="340" height="4" rx="2" fill="#f87171"/>
<text x="232" y="148" fill="#e2e8f0" font-size="13" font-weight="bold">EXPLOIT DETAILS</text>
<!-- Fields -->
<text x="232" y="172" fill="#4a6080" font-size="11">Finding ID</text>
<text x="340" y="172" fill="#e2e8f0" font-size="11">VF-2024-0847</text>
<line x1="232" y1="178" x2="540" y2="178" stroke="#1a2e4a" stroke-width="1"/>
<text x="232" y="196" fill="#4a6080" font-size="11">Type</text>
<text x="340" y="196" fill="#f87171" font-size="11">Reflected XSS</text>
<line x1="232" y1="202" x2="540" y2="202" stroke="#1a2e4a" stroke-width="1"/>
<text x="232" y="220" fill="#4a6080" font-size="11">Target</text>
<text x="340" y="220" fill="#38bdf8" font-size="11">api.vulnforge.app</text>
<line x1="232" y1="226" x2="540" y2="226" stroke="#1a2e4a" stroke-width="1"/>
<text x="232" y="244" fill="#4a6080" font-size="11">Parameter</text>
<text x="340" y="244" fill="#e2e8f0" font-size="11">q (search)</text>
<line x1="232" y1="250" x2="540" y2="250" stroke="#1a2e4a" stroke-width="1"/>
<text x="232" y="268" fill="#4a6080" font-size="11">Method</text>
<text x="340" y="268" fill="#4ade80" font-size="11">GET</text>
<line x1="232" y1="274" x2="540" y2="274" stroke="#1a2e4a" stroke-width="1"/>
<text x="232" y="292" fill="#4a6080" font-size="11">CVSS Score</text>
<rect x="340" y="280" width="36" height="18" rx="3" fill="#f8717133"/>
<text x="344" y="293" fill="#f87171" font-size="11" font-weight="bold">9.3</text>
<line x1="232" y1="298" x2="540" y2="298" stroke="#1a2e4a" stroke-width="1"/>
<text x="232" y="316" fill="#4a6080" font-size="11">Status</text>
<rect x="340" y="304" width="80" height="18" rx="3" fill="#4ade8033"/>
<text x="344" y="317" fill="#4ade80" font-size="11" font-weight="bold">CONFIRMED</text>
<line x1="232" y1="322" x2="540" y2="322" stroke="#1a2e4a" stroke-width="1"/>
<text x="232" y="340" fill="#4a6080" font-size="11">Discovered</text>
<text x="340" y="340" fill="#e2e8f0" font-size="11">2h ago</text>
<!-- PAYLOAD section -->
<text x="232" y="368" fill="#e2e8f0" font-size="12" font-weight="bold">PAYLOAD</text>
<rect x="232" y="376" width="308" height="52" rx="4" fill="#060d18" stroke="#1a2e4a" stroke-width="1"/>
<text x="242" y="396" fill="#4ade80" font-size="10">&lt;script&gt;alert(document.cookie)&lt;/script&gt;</text>
<text x="242" y="414" fill="#4a6080" font-size="10">// XSS payload — cookie exfiltration</text>
<!-- EVIDENCE section -->
<text x="232" y="448" fill="#e2e8f0" font-size="12" font-weight="bold">EVIDENCE</text>
<rect x="232" y="456" width="308" height="120" rx="4" fill="#060d18" stroke="#1a2e4a" stroke-width="1"/>
<rect x="232" y="456" width="308" height="80" rx="4" fill="#0d1e35"/>
<text x="340" y="502" fill="#4a6080" font-size="12" text-anchor="middle">[ Screenshot ]</text>
<text x="340" y="520" fill="#4a6080" font-size="10" text-anchor="middle">browser-capture-0847.png</text>
<text x="242" y="566" fill="#4ade80" font-size="10">✓ Screenshot captured at 02:14:33</text>
<!-- Tags -->
<text x="232" y="600" fill="#4a6080" font-size="11">Tags:</text>
<rect x="270" y="588" width="50" height="18" rx="9" fill="#0d2137" stroke="#38bdf8" stroke-width="1"/>
<text x="278" y="601" fill="#38bdf8" font-size="10">xss</text>
<rect x="328" y="588" width="70" height="18" rx="9" fill="#0d2137" stroke="#f87171" stroke-width="1"/>
<text x="336" y="601" fill="#f87171" font-size="10">critical</text>
<rect x="406" y="588" width="60" height="18" rx="9" fill="#0d2137" stroke="#a78bfa" stroke-width="1"/>
<text x="414" y="601" fill="#a78bfa" font-size="10">owasp</text>
<!-- ===================== RIGHT PANEL: HTTP REPLAY TRACE ===================== -->
<rect x="572" y="124" width="692" height="620" rx="6" fill="#0a1628" stroke="#1a2e4a" stroke-width="1"/>
<rect x="572" y="124" width="692" height="4" rx="2" fill="#38bdf8"/>
<text x="588" y="148" fill="#e2e8f0" font-size="13" font-weight="bold">HTTP REPLAY TRACE</text>
<!-- Tabs -->
<rect x="588" y="156" width="70" height="24" rx="4" fill="#0d2137" stroke="#38bdf8" stroke-width="1"/>
<text x="600" y="173" fill="#38bdf8" font-size="11">Request</text>
<rect x="666" y="156" width="72" height="24" rx="4" fill="transparent" stroke="#1a2e4a" stroke-width="1"/>
<text x="676" y="173" fill="#4a6080" font-size="11">Response</text>
<rect x="746" y="156" width="66" height="24" rx="4" fill="transparent" stroke="#1a2e4a" stroke-width="1"/>
<text x="756" y="173" fill="#4a6080" font-size="11">Headers</text>
<rect x="820" y="156" width="68" height="24" rx="4" fill="transparent" stroke="#1a2e4a" stroke-width="1"/>
<text x="830" y="173" fill="#4a6080" font-size="11">Timeline</text>
<!-- REQUEST block -->
<rect x="588" y="190" width="660" height="160" rx="4" fill="#060d18" stroke="#1a2e4a" stroke-width="1"/>
<rect x="588" y="190" width="660" height="24" rx="4" fill="#0d1e35"/>
<text x="598" y="207" fill="#4a6080" font-size="11">REQUEST</text>
<rect x="1200" y="194" width="42" height="16" rx="3" fill="#4ade8033"/>
<text x="1204" y="206" fill="#4ade80" font-size="10">200 OK</text>
<text x="598" y="228" fill="#4ade80" font-size="11">GET</text>
<text x="626" y="228" fill="#e2e8f0" font-size="11">/search?q=&lt;script&gt;alert(1)&lt;/script&gt; HTTP/1.1</text>
<text x="598" y="246" fill="#38bdf8" font-size="11">Host:</text>
<text x="638" y="246" fill="#e2e8f0" font-size="11">api.vulnforge.app</text>
<text x="598" y="264" fill="#38bdf8" font-size="11">User-Agent:</text>
<text x="672" y="264" fill="#e2e8f0" font-size="11">VulnForge-Scanner/2.1</text>
<text x="598" y="282" fill="#38bdf8" font-size="11">Accept:</text>
<text x="648" y="282" fill="#e2e8f0" font-size="11">text/html,application/xhtml+xml</text>
<text x="598" y="300" fill="#38bdf8" font-size="11">Cookie:</text>
<text x="648" y="300" fill="#facc15" font-size="11">session=eyJhbGc...</text>
<text x="598" y="318" fill="#38bdf8" font-size="11">X-Forwarded-For:</text>
<text x="714" y="318" fill="#e2e8f0" font-size="11">127.0.0.1</text>
<!-- RESPONSE block -->
<rect x="588" y="362" width="660" height="160" rx="4" fill="#060d18" stroke="#1a2e4a" stroke-width="1"/>
<rect x="588" y="362" width="660" height="24" rx="4" fill="#0d1e35"/>
<text x="598" y="379" fill="#4a6080" font-size="11">RESPONSE</text>
<text x="598" y="402" fill="#f87171" font-size="11">HTTP/1.1</text>
<text x="654" y="402" fill="#4ade80" font-size="11">200 OK</text>
<text x="598" y="420" fill="#38bdf8" font-size="11">Content-Type:</text>
<text x="686" y="420" fill="#e2e8f0" font-size="11">text/html; charset=utf-8</text>
<text x="598" y="438" fill="#38bdf8" font-size="11">X-XSS-Protection:</text>
<text x="714" y="438" fill="#f87171" font-size="11">0</text>
<text x="598" y="456" fill="#4a6080" font-size="11">&lt;html&gt;&lt;body&gt;</text>
<text x="598" y="474" fill="#e2e8f0" font-size="11">Results for: </text>
<text x="680" y="474" fill="#f87171" font-size="11">&lt;script&gt;alert(document.cookie)&lt;/script&gt;</text>
<text x="598" y="492" fill="#4a6080" font-size="11">&lt;/body&gt;&lt;/html&gt;</text>
<!-- TIMELINE bar -->
<rect x="588" y="534" width="660" height="60" rx="4" fill="#060d18" stroke="#1a2e4a" stroke-width="1"/>
<text x="598" y="552" fill="#4a6080" font-size="10">TIMING</text>
<!-- Timeline segments -->
<rect x="598" y="558" width="60" height="16" rx="2" fill="#a78bfa"/>
<text x="608" y="570" fill="#060d18" font-size="9" font-weight="bold">DNS</text>
<text x="598" y="584" fill="#a78bfa" font-size="9">12ms</text>
<rect x="664" y="558" width="80" height="16" rx="2" fill="#38bdf8"/>
<text x="676" y="570" fill="#060d18" font-size="9" font-weight="bold">TCP</text>
<text x="664" y="584" fill="#38bdf8" font-size="9">24ms</text>
<rect x="750" y="558" width="90" height="16" rx="2" fill="#facc15"/>
<text x="762" y="570" fill="#060d18" font-size="9" font-weight="bold">TLS</text>
<text x="750" y="584" fill="#facc15" font-size="9">45ms</text>
<rect x="846" y="558" width="120" height="16" rx="2" fill="#fb923c"/>
<text x="876" y="570" fill="#060d18" font-size="9" font-weight="bold">Request</text>
<text x="846" y="584" fill="#fb923c" font-size="9">8ms</text>
<rect x="972" y="558" width="160" height="16" rx="2" fill="#4ade80"/>
<text x="1022" y="570" fill="#060d18" font-size="9" font-weight="bold">Response</text>
<text x="972" y="584" fill="#4ade80" font-size="9">89ms</text>
<text x="1148" y="570" fill="#e2e8f0" font-size="10">Total: 178ms</text>
<!-- CONFIDENCE METER -->
<rect x="588" y="606" width="660" height="80" rx="4" fill="#060d18" stroke="#1a2e4a" stroke-width="1"/>
<text x="598" y="626" fill="#e2e8f0" font-size="12" font-weight="bold">EXPLOIT CONFIRMED</text>
<rect x="598" y="634" width="500" height="14" rx="7" fill="#1a2e4a"/>
<rect x="598" y="634" width="470" height="14" rx="7" fill="#4ade80"/>
<text x="1108" y="646" fill="#4ade80" font-size="12" font-weight="bold">94%</text>
<text x="598" y="670" fill="#4a6080" font-size="11">Confidence Score</text>
<text x="750" y="670" fill="#4ade80" font-size="11">94% — High Confidence</text>
<text x="950" y="670" fill="#4a6080" font-size="11">False Positive Risk:</text>
<rect x="1080" y="658" width="36" height="18" rx="3" fill="#4ade8033"/>
<text x="1084" y="671" fill="#4ade80" font-size="10" font-weight="bold">LOW</text>
<!-- Page breadcrumb -->
<text x="216" y="44" fill="#4a6080" font-size="12">Replay</text>
<text x="268" y="44" fill="#4a6080" font-size="12">/</text>
<text x="280" y="44" fill="#e2e8f0" font-size="12">VF-2024-0847</text>
</svg>